<?xml version="1.0" encoding="iso-8859-1"?>
<!-- Generator: Adobe Illustrator 19.0.0, SVG Export Plug-In . SVG Version: 6.00 Build 0)  -->
<svg version="1.1" id="Capa_1" xmlns="http://www.w3.org/2000/svg" xmlns:xlink="http://www.w3.org/1999/xlink" x="0px" y="0px"
	 viewBox="0 0 512 512" style="enable-background:new 0 0 512 512;" xml:space="preserve">
<g>
	<g>
		<path d="M381.819,457.143H262.962v-73.609c91.529-4.8,164.571-80.549,164.571-173.248S354.491,41.838,262.962,37.038V9.143
			c0-5.056-4.096-9.143-9.143-9.143C193.394,0,135.822,26.048,95.876,71.451c-33.755,38.382-52.343,87.68-52.343,138.834
			c0,112.887,89.417,205.248,201.143,210.057v36.8H125.819c-15.122,0-27.429,12.306-27.429,27.429
			c0,15.122,12.306,27.429,27.429,27.429h256c15.122,0,27.429-12.306,27.429-27.429
			C409.248,469.449,396.941,457.143,381.819,457.143z M274.793,364.133l8.091-35.401l26.011-7.918l30.629,19.008
			C320.471,352.475,298.464,360.914,274.793,364.133z M409.248,210.286c0,24.741-5.961,48.064-16.283,68.846l-12.114-0.357
			l-23.305-36.809c-1.673-2.642-4.59-4.251-7.726-4.251H304.05l-24.512-32.055l8.942-21.221l36.955-21.321
			c1.646-0.951,2.953-2.377,3.739-4.096l29.166-63.433C389.527,124.032,409.248,164.846,409.248,210.286z M262.669,116.635
			l15.899-59.621c23.982,3.858,46.117,13.147,65.125,26.679l-29.897,65.033l-37.12,21.403c-1.728,0.997-3.081,2.533-3.858,4.379
			l-12.187,28.946c-1.28,3.017-0.832,6.491,1.161,9.097l30.473,39.854c1.737,2.258,4.416,3.593,7.269,3.593h45.257l23.214,36.663
			c1.627,2.56,4.416,4.151,7.451,4.251l7.214,0.21c-7.771,11.493-17.115,21.797-27.593,30.83l-40.055-24.859
			c-2.24-1.39-4.965-1.728-7.479-0.978l-35.045,10.67c-3.136,0.951-5.522,3.52-6.254,6.711l-10.542,46.126
			c-0.64,0-1.253,0.091-1.883,0.091c-85.705,0-155.429-69.723-155.429-155.429c0-26.725,6.784-51.904,18.725-73.893l22.098,38.802
			c0.43,0.759,0.969,1.454,1.6,2.066l41.143,39.616c1.755,1.673,4.041,2.551,6.345,2.551c1.618,0,3.237-0.43,4.699-1.307
			l30.473-18.286c2.149-1.298,3.675-3.41,4.224-5.87c0.539-2.459,0.046-5.019-1.353-7.095l-14.153-20.901l2.917-30.93l41.271-11.986
			C259.451,122.158,261.837,119.726,262.669,116.635z M260.119,55.177l-13.806,51.767l-42.286,12.279
			c-3.602,1.042-6.199,4.187-6.555,7.918l-3.813,40.384c-0.201,2.103,0.347,4.224,1.527,5.979l10.578,15.625l-16.192,9.71
			l-35.154-33.847l-26.176-45.97c28.315-38.793,73.984-64.165,125.577-64.165C255.949,54.857,258.016,55.095,260.119,55.177z
			 M61.819,210.286c0-46.702,16.969-91.721,47.79-126.757c34.45-39.159,83.264-62.555,135.067-65.033v18.533
			c-91.529,4.809-164.571,80.558-164.571,173.257s73.042,168.448,164.571,173.248v18.286
			C143.063,397.001,61.819,313.07,61.819,210.286z M381.819,493.714h-256c-5.038,0-9.143-4.096-9.143-9.143
			c0-5.047,4.105-9.143,9.143-9.143h256c5.038,0,9.143,4.096,9.143,9.143C390.962,489.618,386.857,493.714,381.819,493.714z"/>
	</g>
</g>
<g>
	<g>
		<path d="M240.087,289.015l-33.527-50.057c-1.582-2.359-4.169-3.849-7.003-4.032l-50.286-3.282
			c-2.761-0.128-5.403,0.878-7.269,2.871c-1.874,1.993-2.752,4.727-2.395,7.424l7.945,60.955c0.411,3.145,2.414,5.851,5.303,7.15
			l60.626,27.429c1.198,0.549,2.478,0.814,3.767,0.814c1.115,0,2.231-0.201,3.291-0.613c2.286-0.878,4.123-2.633,5.093-4.882
			l15.241-35.045C242.116,294.894,241.824,291.602,240.087,289.015z M212.567,316.992l-47.534-21.513l-5.851-44.873l34.688,2.267
			l28.233,42.158L212.567,316.992z"/>
	</g>
</g>
<g>
	<g>
		<path d="M362.007,28.654l-9.125,15.835c0.622,0.366,62.848,36.864,83.538,108.041l17.563-5.111
			C431.246,69.257,364.823,30.272,362.007,28.654z"/>
	</g>
</g>
<g>
	<g>
		<path d="M461.682,170.971l-17.609,4.946c0.064,0.219,6.162,22.126,6.107,40.439l18.286,0.055
			C468.53,195.584,461.956,171.968,461.682,170.971z"/>
	</g>
</g>
<g>
</g>
<g>
</g>
<g>
</g>
<g>
</g>
<g>
</g>
<g>
</g>
<g>
</g>
<g>
</g>
<g>
</g>
<g>
</g>
<g>
</g>
<g>
</g>
<g>
</g>
<g>
</g>
<g>
</g>
</svg>
