<?xml version="1.0" encoding="iso-8859-1"?>
<!-- Generator: Adobe Illustrator 19.0.0, SVG Export Plug-In . SVG Version: 6.00 Build 0)  -->
<svg version="1.1" id="Capa_1" xmlns="http://www.w3.org/2000/svg" xmlns:xlink="http://www.w3.org/1999/xlink" x="0px" y="0px"
	 viewBox="0 0 479.993 479.993" style="enable-background:new 0 0 479.993 479.993;" xml:space="preserve">
<g>
	<g>
		<g>
			<path d="M399.997,183.993h-54.168l-43.32-60.648c-1.502-2.104-3.927-3.352-6.512-3.352h-64c-4.418,0-8,3.581-8.001,7.999
				c0,1.667,0.52,3.292,1.489,4.649l36.68,51.352h-64.136l-14.344-50.2c-0.725-2.539-2.656-4.556-5.16-5.392l-48-16
				c-2.438-0.809-5.116-0.399-7.2,1.104c-2.088,1.502-3.326,3.916-3.328,6.488v104c0.049,39.744,32.256,71.951,72,72h79.312
				l-53.824,75.352c-2.567,3.596-1.733,8.592,1.863,11.159c1.357,0.968,2.982,1.489,4.649,1.489h64c2.585,0,5.01-1.248,6.512-3.352
				l60.464-84.648h109.024c4.418,0,8-3.582,8-8v-32C471.948,216.249,439.741,184.042,399.997,183.993z M247.541,135.993h44.336
				l34.288,48h-44.336L247.541,135.993z M135.997,131.089l33.472,11.16l11.92,41.744h-45.392V131.089z M283.877,367.993h-44.336
				l51.432-72h44.336L283.877,367.993z M455.997,279.993h-264c-30.913-0.035-55.965-25.087-56-56v-24h264
				c14.633-0.002,28.682,5.744,39.12,16h-39.12v16h50.52c3.6,7.489,5.473,15.691,5.48,24V279.993z"/>
			<rect x="335.997" y="215.993" width="16" height="16"/>
			<rect x="367.997" y="215.993" width="16" height="16"/>
			<rect x="303.997" y="215.993" width="16" height="16"/>
			<rect x="271.997" y="215.993" width="16" height="16"/>
			<rect x="239.997" y="215.993" width="16" height="16"/>
			<rect x="23.997" y="87.993" width="16" height="16"/>
			<rect x="7.997" y="119.993" width="16" height="16"/>
			<path d="M303.997,71.993h48c13.255,0.015,24.012-10.719,24.026-23.974c0.013-11.814-8.574-21.881-20.242-23.73
				c-8.58-15.345-27.974-20.829-43.319-12.249c-5.137,2.872-9.377,7.112-12.249,12.249c-13.091,2.075-22.022,14.37-19.946,27.462
				C282.116,63.42,292.183,72.006,303.997,71.993z M303.997,39.993h1.472c3.384-0.001,6.402-2.131,7.536-5.32
				c2.865-8.28,11.899-12.67,20.179-9.805c4.599,1.591,8.214,5.206,9.805,9.805c1.134,3.189,4.152,5.319,7.536,5.32h1.472
				c4.418,0,8,3.582,8,8s-3.582,8-8,8h-48c-4.418,0-8-3.582-8-8S299.578,39.993,303.997,39.993z"/>
			<path d="M411.781,352.289c-5.653-10.037-16.265-16.261-27.784-16.296c-11.519,0.035-22.131,6.259-27.784,16.296
				c-13.091,2.075-22.022,14.37-19.946,27.462c1.85,11.669,11.916,20.255,23.73,20.242h48c13.255,0.015,24.012-10.719,24.026-23.974
				C432.036,364.206,423.449,354.139,411.781,352.289z M407.997,383.993h-48c-4.418,0-8-3.582-8-8s3.582-8,8-8h1.472
				c3.384-0.001,6.402-2.131,7.536-5.32c2.865-8.28,11.899-12.67,20.179-9.805c4.599,1.591,8.214,5.206,9.805,9.805
				c1.134,3.189,4.152,5.319,7.536,5.32h1.472c4.418,0,8,3.582,8,8S412.415,383.993,407.997,383.993z"/>
			<path d="M367.997,111.993c0,13.255,10.745,24,24,24h48c13.255,0,24-10.745,24-24v-8c0.032-17.638-14.241-31.962-31.878-31.993
				c-11.441-0.021-22.018,6.08-27.729,15.993h-12.392C378.742,87.993,367.997,98.739,367.997,111.993z M391.997,103.993h17.472
				c3.384-0.001,6.402-2.131,7.536-5.32c2.91-8.311,12.007-12.689,20.317-9.779c6.411,2.245,10.696,8.306,10.675,15.099v8
				c0,4.418-3.582,8-8,8h-48c-4.418,0-8-3.582-8-8S387.578,103.993,391.997,103.993z"/>
			<path d="M163.781,432.289c-8.58-15.345-27.974-20.829-43.319-12.249c-5.137,2.872-9.377,7.112-12.249,12.249
				c-11.639,1.875-20.201,11.915-20.216,23.704c0,13.255,10.745,24,24,24h48c13.255,0.015,24.012-10.719,24.026-23.974
				C184.036,444.206,175.449,434.139,163.781,432.289z M159.997,463.993h-48c-4.418,0-8-3.582-8-8s3.582-8,8-8h1.472
				c3.384-0.001,6.402-2.131,7.536-5.32c2.865-8.28,11.899-12.67,20.179-9.805c4.599,1.591,8.214,5.206,9.805,9.805
				c1.134,3.189,4.152,5.319,7.536,5.32h1.472c4.418,0,8,3.582,8,8S164.415,463.993,159.997,463.993z"/>
			<path d="M103.997,399.993v-8c0.032-17.638-14.241-31.962-31.879-31.993c-11.441-0.021-22.018,6.08-27.729,15.993H31.997
				c-13.255,0-24,10.745-24,24s10.745,24,24,24h48C93.252,423.993,103.997,413.248,103.997,399.993z M87.997,399.993
				c0,4.418-3.582,8-8,8h-48c-4.418,0-8-3.582-8-8s3.582-8,8-8h17.472c3.384-0.001,6.402-2.131,7.536-5.32
				c2.91-8.311,12.007-12.689,20.318-9.779c6.411,2.245,10.696,8.306,10.674,15.099V399.993z"/>
			<path d="M95.997,63.993h48c13.255,0,24-10.745,24-24v-8C168.028,14.356,153.756,0.032,136.118,0
				c-11.441-0.021-22.018,6.08-27.729,15.993H95.997c-13.255,0-24,10.745-24,24S82.742,63.993,95.997,63.993z M95.997,31.993h17.472
				c3.384-0.001,6.402-2.131,7.536-5.32c2.91-8.311,12.007-12.689,20.317-9.779c6.411,2.245,10.696,8.306,10.675,15.099v8
				c0,4.418-3.582,8-8,8h-48c-4.418,0-8-3.582-8-8S91.578,31.993,95.997,31.993z"/>
			<rect x="55.997" y="87.993" width="48" height="16"/>
			<rect x="39.997" y="119.993" width="64" height="16"/>
			<rect x="143.997" y="311.993" width="16" height="16"/>
			<rect x="119.997" y="343.993" width="16" height="16"/>
			<rect x="175.997" y="311.993" width="32" height="16"/>
			<rect x="151.997" y="343.993" width="56" height="16"/>
		</g>
	</g>
</g>
<g>
</g>
<g>
</g>
<g>
</g>
<g>
</g>
<g>
</g>
<g>
</g>
<g>
</g>
<g>
</g>
<g>
</g>
<g>
</g>
<g>
</g>
<g>
</g>
<g>
</g>
<g>
</g>
<g>
</g>
</svg>
