<?xml version="1.0" encoding="iso-8859-1"?>
<!-- Generator: Adobe Illustrator 19.0.0, SVG Export Plug-In . SVG Version: 6.00 Build 0)  -->
<svg version="1.1" id="Capa_1" xmlns="http://www.w3.org/2000/svg" xmlns:xlink="http://www.w3.org/1999/xlink" x="0px" y="0px"
	 viewBox="0 0 512 512" style="enable-background:new 0 0 512 512;" xml:space="preserve">
<g>
	<g>
		<path d="M204.8,264.533h-34.133c-4.719,0-8.533,3.814-8.533,8.533V307.2c0,4.719,3.814,8.533,8.533,8.533H204.8
			c4.719,0,8.533-3.814,8.533-8.533v-34.133C213.333,268.348,209.519,264.533,204.8,264.533z M196.267,298.667H179.2V281.6h17.067
			V298.667z"/>
	</g>
</g>
<g>
	<g>
		<path d="M273.067,264.533h-34.133c-4.719,0-8.533,3.814-8.533,8.533V307.2c0,4.719,3.814,8.533,8.533,8.533h34.133
			c4.719,0,8.533-3.814,8.533-8.533v-34.133C281.6,268.348,277.786,264.533,273.067,264.533z M264.533,298.667h-17.067V281.6h17.067
			V298.667z"/>
	</g>
</g>
<g>
	<g>
		<path d="M341.333,264.533H307.2c-4.719,0-8.533,3.814-8.533,8.533V307.2c0,4.719,3.814,8.533,8.533,8.533h34.133
			c4.719,0,8.533-3.814,8.533-8.533v-34.133C349.867,268.348,346.052,264.533,341.333,264.533z M332.8,298.667h-17.067V281.6H332.8
			V298.667z"/>
	</g>
</g>
<g>
	<g>
		<path d="M204.8,196.267h-34.133c-4.719,0-8.533,3.814-8.533,8.533v34.133c0,4.719,3.814,8.533,8.533,8.533H204.8
			c4.719,0,8.533-3.814,8.533-8.533V204.8C213.333,200.081,209.519,196.267,204.8,196.267z M196.267,230.4H179.2v-17.067h17.067
			V230.4z"/>
	</g>
</g>
<g>
	<g>
		<path d="M273.067,196.267h-34.133c-4.719,0-8.533,3.814-8.533,8.533v34.133c0,4.719,3.814,8.533,8.533,8.533h34.133
			c4.719,0,8.533-3.814,8.533-8.533V204.8C281.6,200.081,277.786,196.267,273.067,196.267z M264.533,230.4h-17.067v-17.067h17.067
			V230.4z"/>
	</g>
</g>
<g>
	<g>
		<path d="M341.333,196.267H307.2c-4.719,0-8.533,3.814-8.533,8.533v34.133c0,4.719,3.814,8.533,8.533,8.533h34.133
			c4.719,0,8.533-3.814,8.533-8.533V204.8C349.867,200.081,346.052,196.267,341.333,196.267z M332.8,230.4h-17.067v-17.067H332.8
			V230.4z"/>
	</g>
</g>
<g>
	<g>
		<path d="M85.333,358.4H51.2c-4.719,0-8.533,3.814-8.533,8.533v34.133c0,4.719,3.814,8.533,8.533,8.533h34.133
			c4.719,0,8.533-3.814,8.533-8.533v-34.133C93.867,362.214,90.052,358.4,85.333,358.4z M76.8,392.533H59.733v-17.067H76.8V392.533z
			"/>
	</g>
</g>
<g>
	<g>
		<path d="M85.333,426.667H51.2c-4.719,0-8.533,3.814-8.533,8.533v34.133c0,4.719,3.814,8.533,8.533,8.533h34.133
			c4.719,0,8.533-3.814,8.533-8.533V435.2C93.867,430.481,90.052,426.667,85.333,426.667z M76.8,460.8H59.733v-17.067H76.8V460.8z"
			/>
	</g>
</g>
<g>
	<g>
		<path d="M460.8,358.4h-34.133c-4.719,0-8.533,3.814-8.533,8.533v34.133c0,4.719,3.814,8.533,8.533,8.533H460.8
			c4.719,0,8.533-3.814,8.533-8.533v-34.133C469.333,362.214,465.519,358.4,460.8,358.4z M452.267,392.533H435.2v-17.067h17.067
			V392.533z"/>
	</g>
</g>
<g>
	<g>
		<path d="M460.8,426.667h-34.133c-4.719,0-8.533,3.814-8.533,8.533v34.133c0,4.719,3.814,8.533,8.533,8.533H460.8
			c4.719,0,8.533-3.814,8.533-8.533V435.2C469.333,430.481,465.519,426.667,460.8,426.667z M452.267,460.8H435.2v-17.067h17.067
			V460.8z"/>
	</g>
</g>
<g>
	<g>
		<path d="M503.398,332.45c-0.043-0.956-0.205-1.903-0.563-2.807c-0.026-0.068-0.034-0.145-0.06-0.213
			c-0.008-0.008-0.008-0.026-0.008-0.034l-22.263-51.2c-1.348-3.106-4.412-5.129-7.799-5.137l-71.637-0.23v-76.561h-0.051
			c0-2.27-0.853-4.54-2.645-6.221L264.533,64.375V51.2H307.2V0h-25.003h-17.664h-17.067v64.785L113.621,190.524
			c-1.655,1.562-2.517,3.635-2.637,5.743h-0.051v76.561l-71.629,0.239c-3.388,0.009-6.451,2.022-7.799,5.137l-22.263,51.2
			c-0.009,0.009-0.009,0.026-0.009,0.034c-0.026,0.068-0.034,0.136-0.06,0.205c-0.367,0.905-0.529,1.852-0.563,2.807
			c-0.009,0.128-0.077,0.23-0.077,0.35v170.667c0,4.719,3.814,8.533,8.533,8.533h102.4H153.6h34.133h34.133h68.267h34.133H358.4
			h34.133h102.4c4.719,0,8.533-3.814,8.533-8.533V332.8C503.467,332.681,503.398,332.578,503.398,332.45z M264.533,17.067h17.664
			h7.936v17.067h-25.6V17.067z M110.933,494.933H25.6v-153.6h85.333V494.933z M110.933,324.267H30.08l14.857-34.15l65.997-0.222
			V324.267z M145.067,494.933H128V384h17.067V494.933z M179.2,494.933h-17.067V384H179.2V494.933z M281.6,494.933h-51.2v-76.8h51.2
			V494.933z M315.733,494.933h-17.067V409.6c0-4.719-3.814-8.533-8.533-8.533h-68.267c-4.719,0-8.533,3.814-8.533,8.533v85.333
			h-17.067V384h119.467V494.933z M349.867,494.933H332.8V384h17.067V494.933z M384,494.933h-17.067V384H384V494.933z M384,366.933
			h-25.6h-34.133H187.733H153.6H128v-17.067h256V366.933z M384,281.336V332.8H128v-51.464v-80.905L256.213,79.974L384,199.953
			V281.336z M401.067,289.894l65.997,0.222l14.857,34.15h-80.853V289.894z M486.4,494.933h-85.333v-153.6H486.4V494.933z"/>
	</g>
</g>
<g>
	<g>
		<path d="M256,110.933c-18.825,0-34.133,15.309-34.133,34.133S237.175,179.2,256,179.2s34.133-15.309,34.133-34.133
			S274.825,110.933,256,110.933z M256,162.133c-9.412,0-17.067-7.654-17.067-17.067c0-9.412,7.654-17.067,17.067-17.067
			s17.067,7.654,17.067,17.067C273.067,154.479,265.412,162.133,256,162.133z"/>
	</g>
</g>
<g>
</g>
<g>
</g>
<g>
</g>
<g>
</g>
<g>
</g>
<g>
</g>
<g>
</g>
<g>
</g>
<g>
</g>
<g>
</g>
<g>
</g>
<g>
</g>
<g>
</g>
<g>
</g>
<g>
</g>
</svg>
