<?xml version="1.0"?>
<svg xmlns="http://www.w3.org/2000/svg" xmlns:xlink="http://www.w3.org/1999/xlink" version="1.1" id="Capa_1" x="0px" y="0px" viewBox="0 0 512 512" style="enable-background:new 0 0 512 512;" xml:space="preserve" width="512px" height="512px" class=""><g><g>
	<g>
		<path d="M509.235,495.097l-112.596-118c-1.887-1.978-4.501-3.097-7.235-3.097H345.18l54.534-69.866    c0.211-0.27,0.407-0.549,0.587-0.836c26.882-33.034,41.673-74.644,41.673-117.325C441.974,83.428,358.547,0,256,0    c-30.791,0-61.299,7.684-88.227,22.221c-4.86,2.624-6.673,8.69-4.049,13.55c2.624,4.86,8.689,6.672,13.55,4.049    C201.293,26.854,228.516,20,256,20c91.518,0,165.974,74.456,165.974,165.974c0,38.498-13.479,76.014-37.955,105.639    c-0.333,0.403-0.63,0.827-0.892,1.268L256.002,455.746L127.679,291.267c-0.126-0.177-0.258-0.35-0.396-0.52    c-24.025-29.477-37.256-66.686-37.256-104.773c0-34.848,10.677-68.196,30.876-96.439c3.213-4.492,2.176-10.738-2.316-13.951    s-10.738-2.176-13.951,2.316c-22.641,31.658-34.609,69.029-34.609,108.074c0,42.526,14.721,84.076,41.465,117.055    c0.047,0.063,0.094,0.125,0.143,0.188L166.859,374h-44.944c-2.744,0-5.367,1.127-7.256,3.119l-111.914,118    c-2.75,2.899-3.51,7.158-1.932,10.83S6.004,512,10,512h329.333c5.523,0,10-4.477,10-10s-4.477-10-10-10H33.267l92.945-98h56.25    l65.654,84.151c1.895,2.428,4.803,3.848,7.883,3.849H256c3.08,0,5.988-1.419,7.883-3.847L329.569,394h55.555l93.512,98h-61.303    c-5.523,0-10,4.477-10,10s4.477,10,10,10H502c4.002,0,7.619-2.386,9.193-6.065C512.768,502.256,511.998,497.992,509.235,495.097z" data-original="#000000" class="active-path" data-old_color="#FDFBFB" fill="#FFFCFC"/>
	</g>
</g><g>
	<g>
		<path d="M357.222,151.304l-94.774-79.947c-3.725-3.142-9.171-3.142-12.895,0l-94.774,79.947c-3.21,2.708-4.386,7.132-2.945,11.076    c1.441,3.944,5.193,6.568,9.392,6.568H176V256h-1.894c-5.523,0-10,4.477-10,10s4.477,10,10,10h167.249c5.523,0,10-4.477,10-10    s-4.477-10-10-10H336v-87.053h14.774c4.199,0,7.951-2.624,9.393-6.567C361.608,158.436,360.432,154.011,357.222,151.304z     M272.021,256h-32.042v-24.958c0-8.834,7.187-16.021,16.021-16.021c8.834,0,16.021,7.187,16.021,16.021V256z M316,256h-23.979    v-24.958c0-19.862-16.159-36.021-36.021-36.021s-36.021,16.159-36.021,36.021V256H196v-87.053h120V256z M188.59,148.948    L256,92.083l67.411,56.865H188.59z" data-original="#000000" class="active-path" data-old_color="#FDFBFB" fill="#FFFCFC"/>
	</g>
</g><g>
	<g>
		<path d="M145.65,47.84c-1.86-1.86-4.43-2.93-7.07-2.93c-2.63,0-5.21,1.07-7.07,2.93c-1.86,1.86-2.93,4.44-2.93,7.07    c0,2.63,1.07,5.21,2.93,7.07c1.86,1.86,4.44,2.93,7.07,2.93c2.64,0,5.21-1.07,7.07-2.93c1.87-1.86,2.93-4.44,2.93-7.07    C148.58,52.28,147.52,49.7,145.65,47.84z" data-original="#000000" class="active-path" data-old_color="#FDFBFB" fill="#FFFCFC"/>
	</g>
</g><g>
	<g>
		<path d="M386.4,494.93c-1.86-1.86-4.43-2.93-7.07-2.93c-2.63,0-5.21,1.07-7.07,2.93s-2.93,4.44-2.93,7.07s1.07,5.21,2.93,7.07    c1.86,1.86,4.44,2.93,7.07,2.93c2.64,0,5.21-1.07,7.07-2.93c1.87-1.86,2.93-4.44,2.93-7.07S388.27,496.79,386.4,494.93z" data-original="#000000" class="active-path" data-old_color="#FDFBFB" fill="#FFFCFC"/>
	</g>
</g></g> </svg>
