<?xml version="1.0" encoding="iso-8859-1"?>
<!-- Generator: Adobe Illustrator 19.0.0, SVG Export Plug-In . SVG Version: 6.00 Build 0)  -->
<svg version="1.1" id="Capa_1" xmlns="http://www.w3.org/2000/svg" xmlns:xlink="http://www.w3.org/1999/xlink" x="0px" y="0px"
	 viewBox="0 0 440 440" style="enable-background:new 0 0 440 440;" xml:space="preserve">
<g>
	<g>
		<g>
			<path d="M228.632,60.866c-0.203-13.253-11.112-23.832-24.365-23.629c-13.253,0.203-23.832,11.112-23.629,24.365
				c0.201,13.109,10.884,23.63,23.994,23.632C217.981,85.115,228.716,74.216,228.632,60.866z M196.632,60.866
				c0.203-4.414,3.946-7.827,8.359-7.623c4.414,0.203,7.827,3.946,7.624,8.359c-0.197,4.267-3.711,7.628-7.983,7.632
				C200.115,69.125,196.538,65.383,196.632,60.866z"/>
			<path d="M351.946,159.146c-11.877-5.093-25.491-4.078-36.482,2.72c-1.6-1.424-3.2-2.904-4.88-4.256
				c-0.176-0.144-0.36-0.264-0.536-0.408c-3.296-2.667-6.688-5.16-10.176-7.48l-0.336-0.216c-3.568-2.4-7.2-4.608-10.976-6.68
				l-0.28-0.144c-3.733-2.048-7.525-3.915-11.376-5.6c-0.296-0.128-0.592-0.24-0.888-0.376c-3.579-1.563-7.213-2.984-10.904-4.264
				c-0.72-0.256-1.456-0.48-2.184-0.72c-3.2-1.048-6.4-2-9.6-2.832c-1.28-0.336-2.568-0.64-3.864-0.936
				c-2.667-0.613-5.371-1.147-8.112-1.6c-1.755-0.304-3.517-0.571-5.288-0.8H236l16.344-41.792
				c6.397-16.345,4.301-34.795-5.6-49.288c-15.658-23.264-47.21-29.431-70.475-13.773c-5.437,3.659-10.114,8.336-13.773,13.773
				c-9.904,14.492-12,32.944-5.6,49.288l17.984,45.776c-33.841,9.242-63.41,29.975-83.632,58.64
				c-1.184-0.112-2.36-0.224-3.568-0.224c-13.329-0.024-25.772,6.672-33.096,17.808c-7.355,11.121-8.613,25.2-3.344,37.448
				l12.08,28.176c0,0.12-0.072,0.216-0.08,0.336c0,1.4-0.056,2.808-0.056,4.216c-0.063,83.894,67.896,151.955,151.79,152.018
				c68.726,0.052,128.925-46.047,146.794-112.41c6.948-21.234,8.015-43.953,3.088-65.744c-0.8-4.512-1.704-8.992-2.896-13.408
				l10.8-25.184C381.39,191.085,372.071,167.775,351.946,159.146z M171.84,77.826c-4.477-11.416-3.025-24.306,3.88-34.44
				c10.668-15.965,32.259-20.26,48.225-9.591c3.796,2.536,7.055,5.795,9.591,9.591c6.906,10.133,8.356,23.026,3.872,34.44
				L212,142.738c-1.111,3.129-4.079,5.215-7.4,5.2c-3.321,0.015-6.289-2.071-7.4-5.2L171.84,77.826z M168,152.482
				c4.312-2.409,8.803-4.485,13.432-6.208l0.896,2.288c3.522,9.255,12.394,15.373,22.296,15.376
				c9.903-0.007,18.775-6.123,22.304-15.376l2.976-7.608c0.282,0.121,0.571,0.228,0.864,0.32
				c17.159,2.877,33.583,9.105,48.336,18.328l-1.552,7.728c-9.384,5.255-15.5,14.873-16.28,25.6
				c-1.144,5.728-1.976,9.352-4.48,11.352l-3.24,2.592c-9.768,7.763-22.583,10.558-34.696,7.568c-0.6-0.22-0.964-0.831-0.872-1.464
				c0.431-1.727,0.273-3.549-0.448-5.176l-10.224-23.064c-1.269-2.909-4.138-4.792-7.312-4.8h-22.576
				c-4.8-1.984-9.424-6.72-9.424-23.064V152.482z M67.936,214.57c7.207-10.897,21.884-13.888,32.781-6.681
				c9.527,6.301,13.191,18.511,8.707,29.017l-14.4,33.6c-1.747,4.058-6.453,5.932-10.511,4.185
				c-1.878-0.809-3.376-2.306-4.185-4.185l-14.4-33.6C62.737,229.607,63.494,221.183,67.936,214.57z M208.832,392.394l0.008-0.032
				c-0.169,0.339-0.313,0.689-0.432,1.048l-5.96,17.88c-64.483-6.14-115.72-56.848-122.528-121.264
				c2.5,0.846,5.121,1.281,7.76,1.288c9.637,0.087,18.363-5.678,22.064-14.576l12.36-28.8h26.4l10.672,8
				c11.214,6.544,17.493,19.103,16,32v24c0,2.518-1.186,4.889-3.2,6.4l-17.336,13c-7.071,5.3-8.507,15.328-3.207,22.399
				c0.81,1.08,1.753,2.054,2.807,2.897l22.928,18.344c2.612,2.093,6.25,2.339,9.12,0.616c6.584-4.776,15.794-3.309,20.569,3.275
				C209.694,382.781,210.432,387.835,208.832,392.394z M219.2,411.738l4.256-12.8c4.905-11.919,1.745-25.636-7.88-34.208
				c-8.711-8.16-21.463-10.31-32.368-5.456l-18.928-15.152l17.32-12.984c6.028-4.546,9.58-11.651,9.6-19.2v-23.672
				c1.638-18.063-7.023-35.511-22.4-45.128l-12.8-9.6c-1.385-1.039-3.069-1.6-4.8-1.6h-24.168
				c1.807-15.677-5.928-30.916-19.648-38.712c11.952-15.658,27.179-28.517,44.616-37.68v1.328c0,7.792,0,31.496,21.472,38.656
				c0.815,0.271,1.669,0.409,2.528,0.408h18.8l7.2,16.224c-0.505,8.283,4.96,15.751,13.008,17.776
				c4.404,1.096,8.926,1.649,13.464,1.648c12.747,0.005,25.12-4.313,35.096-12.248l3.2-2.592c5.829-5.417,9.452-12.796,10.176-20.72
				c1.728-8.664,2.88-12.936,10.136-15.36c2.721-0.908,4.748-3.203,5.312-6.016l1.84-9.216c1.936,1.384,3.88,2.736,5.744,4.224
				c0.176,0.144,0.368,0.272,0.552,0.416c1.144,0.92,2.2,1.96,3.32,2.92c-7.611,10.9-9.237,24.894-4.328,37.248
				c-2.804,4.017-4.312,8.797-4.32,13.696c0,4.418-3.582,8-8,8h-16.328c-6.312,0-12.8,4.632-20.736,14.56l-17.888,19.304
				c-6.557,8.15-7.056,19.615-1.232,28.304l20.76,31.144c4.457,6.686,11.964,10.698,20,10.688h7.44c3.707,0,6.928,2.546,7.784,6.152
				l-5.832,9.736c-0.755,1.239-1.159,2.661-1.168,4.112v8c-0.001,0.859,0.137,1.713,0.408,2.528l8,23.912
				C267.715,403.67,243.784,411.056,219.2,411.738z M346.4,311.138c-5.142,15.978-12.586,31.121-22.096,44.952
				c-6.272,9.018-13.882,17.028-22.568,23.752l-5.736-17.2v-4.496l6.048-10.096c0.749-1.241,1.148-2.662,1.152-4.112
				c0-13.255-10.745-24-24-24h-7.44c-2.674,0-5.172-1.335-6.656-3.56l-20.8-31.144c-1.878-2.703-1.878-6.289,0-8.992l17.896-19.304
				c2.523-3.349,5.452-6.372,8.72-9h16.28c9.666-0.001,18.387-5.8,22.128-14.712l4.928,11.512
				c3.709,8.883,12.43,14.633,22.056,14.544c4.713,0.028,9.33-1.336,13.272-3.92c1.053,6.809,1.594,13.687,1.616,20.576
				C351.154,287.832,349.54,299.667,346.4,311.138z M358.056,204.906l-14.4,33.6c-1.742,4.06-6.446,5.94-10.506,4.198
				c-1.886-0.809-3.389-2.312-4.198-4.198l-14.4-33.56c-4.012-9.378-1.576-20.271,6.048-27.048
				c9.765-8.68,24.717-7.801,33.397,1.964C360.091,186.717,361.673,196.477,358.056,204.906z"/>
			<path d="M82,233.618c0.778,0.706,1.671,1.274,2.64,1.68c0.962,0.41,1.995,0.627,3.04,0.64c2.121-0.016,4.155-0.846,5.68-2.32
				c0.344-0.38,0.665-0.781,0.96-1.2c0.303-0.446,0.545-0.93,0.72-1.44c0.231-0.453,0.393-0.939,0.48-1.44
				c0.128-0.523,0.182-1.062,0.16-1.6c-0.031-2.118-0.859-4.146-2.32-5.68c-2.3-2.27-5.741-2.933-8.72-1.68
				c-0.969,0.406-1.862,0.974-2.64,1.68c-1.461,1.534-2.289,3.562-2.32,5.68c0.018,0.536,0.071,1.071,0.16,1.6
				c0.087,0.501,0.249,0.987,0.48,1.44c0.175,0.51,0.417,0.994,0.72,1.44L82,233.618z"/>
			<path d="M342,190.258c-3.208-2.96-8.152-2.96-11.36,0c-0.706,0.778-1.274,1.671-1.68,2.64c-0.854,1.937-0.854,4.143,0,6.08
				c0.387,0.979,0.957,1.875,1.68,2.64c3.111,3.137,8.177,3.158,11.314,0.047c1.526-1.513,2.379-3.577,2.366-5.727
				c-0.013-1.045-0.23-2.078-0.64-3.04C343.274,191.929,342.706,191.036,342,190.258z"/>
			<path d="M320,91.938h16c4.418,0,8-3.582,8-8s-3.582-8-8-8h-16c-4.418,0-8,3.582-8,8S315.582,91.938,320,91.938z"/>
			<path d="M272,91.938h16c4.418,0,8-3.582,8-8s-3.582-8-8-8h-16c-4.418,0-8,3.582-8,8S267.582,91.938,272,91.938z"/>
			<path d="M104,91.938h16c4.418,0,8-3.582,8-8s-3.582-8-8-8h-16c-4.418,0-8,3.582-8,8S99.582,91.938,104,91.938z"/>
			<path d="M56,91.938h16c4.418,0,8-3.582,8-8s-3.582-8-8-8H56c-4.418,0-8,3.582-8,8S51.582,91.938,56,91.938z"/>
			<path d="M24,75.938H8c-4.418,0-8,3.582-8,8s3.582,8,8,8h16c4.418,0,8-3.582,8-8S28.418,75.938,24,75.938z"/>
			<path d="M431,75.938h-17.232l-6.176-18.536c-1.398-4.197-5.935-6.466-10.132-5.068s-6.466,5.935-5.068,10.132l4.504,13.472h-17.6
				l-5.656-5.664c-3.126-3.124-8.192-3.122-11.316,0.004c-3.124,3.126-3.122,8.192,0.004,11.316l8.016,8.008
				c1.501,1.497,3.536,2.338,5.656,2.336c0.16,0,0.312-0.08,0.472-0.088s0.344,0.096,0.528,0.096h16.048l-7.704,11.56
				c-2.514,3.633-1.607,8.617,2.026,11.131c3.633,2.514,8.617,1.607,11.131-2.026c0.053-0.077,0.105-0.154,0.155-0.232l13.624-20.44
				H431c4.689,0.26,8.708-3.313,9-8C439.708,79.251,435.689,75.679,431,75.938z"/>
		</g>
	</g>
</g>
<g>
</g>
<g>
</g>
<g>
</g>
<g>
</g>
<g>
</g>
<g>
</g>
<g>
</g>
<g>
</g>
<g>
</g>
<g>
</g>
<g>
</g>
<g>
</g>
<g>
</g>
<g>
</g>
<g>
</g>
</svg>
