<?xml version="1.0" standalone="no"?><!-- Generator: Gravit.io --><svg xmlns="http://www.w3.org/2000/svg" xmlns:xlink="http://www.w3.org/1999/xlink" style="isolation:isolate" viewBox="389 159 515.971 514.197" width="515.971" height="514.197"><defs><clipPath id="_clipPath_J8bIRNzroQKUntuhedMlAuAFgQtw9knU"><rect x="389" y="159" width="515.971" height="514.197"/></clipPath></defs><g clip-path="url(#_clipPath_J8bIRNzroQKUntuhedMlAuAFgQtw9knU)"><g><path d=" M 391.664 160.664 L 583.164 161.164 C 569.102 164.659 561.72 177.338 561.164 191.164 L 561.164 191.164 L 562.164 194.164 L 560.664 198.664 L 558.664 199.664 L 556.664 199.664 Q 523.558 194.557 512.164 211.164 Q 509.414 220.414 502.664 225.664 Q 489.869 229.868 483.164 240.164 Q 477.414 248.414 474.664 259.664 Q 467.964 261.964 457.664 260.664 L 417.664 260.664 C 410.172 258.83 399.245 256.854 393.164 263.164 L 393.164 263.164 L 391.664 266.664 L 391.664 160.664 Z " fill="rgb(252,252,252)"/><path d=" M 583.664 160.664 L 677.664 160.664 Q 714.509 154.319 727.164 172.164 Q 733.877 182.452 734.664 198.664 Q 770.414 193.914 783.164 212.164 Q 785.299 221.03 791.664 225.664 Q 804.248 230.081 811.164 240.164 Q 816.914 248.414 819.664 259.664 Q 826.364 261.964 836.664 260.664 L 876.664 260.664 Q 894.539 256.289 901.164 263.164 Q 907.593 275.736 903.164 299.164 L 903.164 392.164 L 897.664 398.664 L 841.664 398.664 Q 826.814 395.814 819.164 400.164 Q 816.164 407.164 818.164 419.164 L 818.164 468.164 L 820.664 472.664 Q 849.663 470.166 860.164 486.164 Q 871.286 498.043 869.164 523.164 Q 863.914 527.414 868.164 541.164 L 868.164 592.164 C 872.19 595.385 870.977 601.794 870.024 606.055 C 867.803 615.983 865.356 625.197 857.887 632.574 C 852.883 637.515 848.325 640.995 841.117 642.179 C 834.036 643.342 825.782 641.078 819.232 644.731 C 813.038 648.186 812.347 656.394 808.071 661.57 C 798.538 673.11 782.531 674.159 768.664 672.664 L 768.664 672.664 L 716.664 672.664 L 508.664 672.664 C 501.417 671.639 489.946 668.341 486.164 661.164 C 482.741 654.668 480.388 648.68 474.664 643.664 L 474.664 643.664 L 467.664 642.664 C 465.08 646.541 455.437 643.322 452.013 642.441 C 448.134 641.442 444.374 639.904 441.04 637.663 C 423.49 625.87 422.662 600.885 425.164 582.164 L 425.164 582.164 L 425.164 510.164 Q 426.748 487.748 441.664 478.664 Q 454.52 471.02 475.164 471.164 L 475.164 419.164 Q 479.664 404.164 473.664 399.664 Q 449.998 394.331 416.664 398.664 Q 399.498 402.831 393.164 396.164 Q 385.998 384.831 391.164 361.164 L 391.164 267.164 L 394.664 261.664 C 398.979 258.838 404.928 259.655 409.664 260.664 L 409.664 260.664 L 449.664 260.664 Q 465.789 263.289 475.164 259.164 Q 478.914 240.914 491.664 231.664 Q 501.326 228.326 507.164 221.164 Q 510.581 210.581 518.664 204.664 Q 532.35 195.85 557.664 198.664 L 559.664 198.664 L 561.164 198.164 L 562.164 192.164 L 562.164 190.164 C 562.374 180.193 565.505 169.878 574.664 164.664 L 574.664 164.664 L 583.664 160.664 Z " fill="rgb(32,32,30)"/><path d=" M 710.664 160.664 L 903.164 161.164 L 902.664 267.664 L 899.664 261.664 C 895.35 258.838 889.401 259.655 884.664 260.664 L 884.664 260.664 L 844.664 260.664 Q 828.539 263.289 819.164 259.164 Q 815.163 240.166 801.664 230.664 Q 792.414 227.914 787.164 221.164 Q 784.107 210.222 775.664 204.664 Q 768.539 197.789 752.664 199.664 Q 739.477 201.852 733.164 197.164 Q 733.839 174.49 720.664 165.664 L 713.164 162.164 C 712.289 162.186 709.872 162.169 710.664 160.664 L 710.664 160.664 Z  M 592.664 180.664 L 673.664 180.664 C 684.948 178.527 697.692 177.535 707.757 184.072 C 712.284 187.012 711.944 193.489 711.164 198.164 L 711.164 198.164 L 709.664 200.664 L 657.664 200.664 C 649.801 199.072 638.757 197.921 633.164 205.164 L 633.164 205.164 L 632.164 214.164 L 636.664 219.664 C 643.404 223.708 652.477 222.287 659.664 220.664 L 659.664 220.664 L 724.664 220.664 Q 750.685 216.143 764.164 224.164 Q 771.914 241.414 767.164 271.164 L 767.164 388.164 Q 764.888 413.388 749.664 425.664 Q 727.962 444.962 679.664 437.664 Q 675.164 435.664 677.164 427.164 L 677.164 400.164 Q 680.764 383.564 672.664 378.664 Q 667.539 376.289 658.664 377.664 L 624.664 377.664 L 618.164 382.164 C 615.949 385.265 616.465 389.668 617.164 393.164 L 617.164 393.164 L 617.164 421.164 Q 620.664 434.164 614.664 437.664 Q 560.426 445.403 539.164 420.164 Q 521.151 397.178 527.164 350.164 L 527.164 231.164 Q 527.789 225.289 531.664 222.664 Q 543.498 217.998 562.664 220.664 Q 577.324 223.323 582.164 216.164 Q 578.12 191.62 588.664 181.664 L 592.664 180.664 Z  M 505.664 248.664 C 508.893 250.509 507.937 255.268 507.164 258.164 L 507.164 258.164 L 504.664 261.664 C 498.492 263.134 497.192 260.002 499.8 254.675 C 501.069 252.084 503.109 249.986 505.664 248.664 L 505.664 248.664 Z  M 787.664 248.664 L 793.164 253.164 L 796.164 260.164 C 794.496 263.836 788.644 262.046 787.164 259.164 C 785.521 255.962 786.608 251.847 787.664 248.664 L 787.664 248.664 Z  M 413.664 281.664 L 481.664 281.664 L 498.664 281.664 C 501.59 281.037 505.87 280.713 507.164 284.164 L 507.164 284.164 L 507.164 352.164 L 507.164 369.164 C 507.791 372.09 508.116 376.37 504.664 377.664 L 504.664 377.664 L 437.664 377.664 C 429.589 379.67 417.8 381.877 411.164 375.164 L 411.164 375.164 L 411.164 307.164 L 411.164 290.164 C 410.537 287.239 410.213 282.959 413.664 281.664 L 413.664 281.664 Z  M 789.664 281.664 L 856.664 281.664 Q 874.477 277.352 882.164 283.164 Q 886.831 290.998 883.164 307.164 L 883.164 374.164 L 880.664 377.664 L 813.664 377.664 C 805.589 379.67 793.8 381.877 787.164 375.164 L 787.164 375.164 L 787.164 307.164 L 787.164 290.164 C 786.537 287.239 786.213 282.959 789.664 281.664 L 789.664 281.664 Z  M 391.664 392.664 L 394.664 397.664 C 398.979 400.491 404.928 399.674 409.664 398.664 L 409.664 398.664 L 448.664 398.664 C 457.247 397.284 467.303 396.665 475.164 401.164 L 475.164 401.164 L 475.164 453.164 Q 479.664 468.164 473.664 472.664 Q 442.191 470.691 431.164 489.164 Q 421.414 504.914 425.164 534.164 L 425.164 606.164 C 425.35 608.713 425.677 611.264 426.186 613.768 C 430.244 633.739 447.026 644.68 466.664 643.664 L 466.664 643.664 L 471.664 642.664 L 478.164 647.164 C 483.168 660.843 493.222 671.148 508.164 672.164 L 508.164 672.164 L 391.664 672.664 L 391.664 392.664 Z  M 902.664 392.664 L 903.164 672.164 L 786.664 672.664 L 786.664 671.664 Q 802.755 670.754 809.164 660.164 Q 812.248 650.248 819.664 644.664 Q 848.154 645.653 860.164 630.164 Q 871.664 618.664 869.164 593.164 Q 863.914 588.914 868.164 575.164 L 868.164 524.164 Q 872.914 520.414 869.164 508.164 Q 866.364 488.964 853.664 479.664 Q 841.431 470.398 819.164 471.164 Q 816.164 464.164 818.164 452.164 L 818.164 403.164 L 819.664 399.664 C 824.615 397.452 830.45 397.827 835.664 398.664 L 835.664 398.664 L 876.664 398.664 C 884.551 400.709 897.373 403.062 902.164 394.164 L 902.164 394.164 L 902.664 392.664 Z  M 498.664 397.664 Q 505.914 396.414 508.164 400.164 Q 513.286 429.543 533.664 443.664 Q 549.27 458.558 579.664 458.664 L 605.664 458.664 Q 614.914 456.414 617.164 461.164 Q 616.451 480.878 627.664 488.664 Q 635.419 495.409 649.664 495.664 Q 665.178 493.177 672.164 482.164 Q 678.495 473.495 678.664 458.664 Q 745.574 466.574 771.164 433.164 Q 782.746 418.245 788.664 397.664 L 796.164 398.164 C 799.143 402.782 798.252 409.117 797.164 414.164 L 797.164 414.164 L 797.164 458.164 L 797.164 633.164 C 796.556 639.323 794.102 645.31 788.664 648.664 L 788.664 648.664 L 787.164 648.164 L 787.164 579.164 Q 791.24 537.588 768.664 522.664 Q 745.089 505.24 696.664 512.664 L 547.664 512.664 Q 527.535 517.035 517.164 531.164 Q 503.414 545.414 507.164 577.164 L 506.664 648.664 L 501.164 644.164 C 496.284 636.982 496.22 627.447 497.164 619.164 L 497.164 619.164 L 497.164 575.164 L 497.164 399.164 L 498.664 397.664 Z  M 639.664 397.664 C 644.878 396.242 653.688 394.371 657.164 400.164 L 657.164 400.164 L 657.164 448.164 C 658.509 456.613 658.914 467.589 651.664 473.664 L 651.664 473.664 L 645.664 474.664 L 639.164 470.164 C 635.484 463.969 636.035 455.979 637.164 449.164 L 637.164 449.164 L 637.164 400.164 L 639.664 397.664 Z  M 820.664 494.664 C 823.872 494.252 827.128 494.067 830.356 494.348 C 850.333 496.087 849.335 518.969 847.164 534.164 L 847.164 534.164 L 847.164 606.164 C 846.512 611.538 843.966 616.867 839.098 619.598 C 833.619 622.672 826.522 621.836 820.664 620.664 L 820.664 620.664 L 818.164 619.164 C 814.246 609.105 815.3 597.516 817.164 587.164 L 817.164 587.164 L 817.164 497.164 L 820.664 494.664 Z  M 457.664 495.664 C 463.425 494.075 474.342 491.903 476.71 499.681 C 479.727 509.588 478.98 520.083 477.164 530.164 L 477.164 530.164 L 477.164 618.164 L 475.664 620.664 L 468.664 621.664 Q 455.456 622.373 450.164 615.164 Q 444.164 603.164 447.164 582.164 L 447.164 510.164 C 447.656 505.319 449.524 500.517 453.664 497.664 L 453.664 497.664 L 457.664 495.664 Z  M 557.664 532.664 L 691.664 532.664 L 724.664 532.664 Q 741.878 530.45 748.164 539.164 Q 770.506 576.323 767.164 639.164 Q 763.664 645.164 750.664 641.664 L 705.664 641.664 L 528.664 641.664 Q 522.102 632.727 527.164 612.164 Q 527.277 562.777 549.664 535.664 L 557.664 532.664 Z " fill-rule="evenodd" fill="rgb(252,252,252)"/></g></g></svg>